<svg width="375" height="812" viewBox="0 0 375 812" fill="none" xmlns="http://www.w3.org/2000/svg">
<rect width="375" height="812" fill="#0C886A"/>
<path d="M184 372.6C184 371.846 184 371.469 183.766 371.234C183.531 371 183.154 371 182.4 371L162.769 371C159.195 371 156.173 371 153.766 371.37C151.176 371.768 148.883 372.648 147.085 374.702C145.338 376.699 144.638 379.147 144.313 381.903C144.071 383.966 144.016 386.456 144.004 389.399C144 390.152 143.999 390.529 144.233 390.765C144.468 391 144.846 391 145.601 391H157C160.866 391 164 394.134 164 398V414C164 417.866 160.866 421 157 421H145.601C144.846 421 144.468 421 144.233 421.236C143.999 421.471 144 421.848 144.004 422.601C144.016 425.544 144.071 428.034 144.313 430.097C144.638 432.853 145.338 435.301 147.085 437.298C148.883 439.352 151.176 440.232 153.766 440.631C156.173 441 159.195 441 162.769 441H182.4C183.154 441 183.531 441 183.766 440.766C184 440.531 184 440.154 184 439.4V417.796C184 417.234 184 416.952 183.864 416.75C183.728 416.547 183.437 416.429 182.856 416.193C178.835 414.556 176 410.609 176 406C176 401.391 178.835 397.444 182.856 395.807C183.437 395.571 183.728 395.453 183.864 395.25C184 395.048 184 394.766 184 394.204V372.6Z" fill="#B8FEDC"/>
<path d="M144 413.4C144 414.154 144 414.531 144.234 414.766C144.469 415 144.846 415 145.6 415H157C157.552 415 158 414.552 158 414V398C158 397.448 157.552 397 157 397H145.6C144.846 397 144.469 397 144.234 397.234C144 397.469 144 397.846 144 398.6V413.4Z" fill="#B8FEDC"/>
<path d="M190 439.4C190 440.154 190 440.531 190.234 440.766C190.469 441 190.846 441 191.6 441H211.231C214.805 441 217.827 441 220.234 440.631C222.824 440.232 225.117 439.352 226.915 437.298C228.662 435.301 229.362 432.853 229.687 430.097C229.929 428.034 229.984 425.544 229.996 422.601C230 421.848 230.001 421.471 229.767 421.236C229.532 421 229.154 421 228.399 421H217C213.134 421 210 417.866 210 414V398C210 394.134 213.134 391 217 391H228.399C229.154 391 229.532 391 229.767 390.765C230.001 390.529 230 390.152 229.996 389.399C229.984 386.456 229.929 383.966 229.687 381.903C229.362 379.147 228.662 376.699 226.915 374.702C225.117 372.648 222.824 371.768 220.234 371.37C217.827 371 214.805 371 211.232 371L191.6 371C190.846 371 190.469 371 190.234 371.234C190 371.469 190 371.846 190 372.6V394.204C190 394.766 190 395.048 190.136 395.25C190.272 395.453 190.563 395.571 191.144 395.807C195.165 397.444 198 401.391 198 406C198 410.609 195.165 414.556 191.144 416.193C190.563 416.429 190.272 416.547 190.136 416.75C190 416.952 190 417.234 190 417.796V439.4Z" fill="#B8FEDC"/>
<path d="M217 397H228.4C229.154 397 229.531 397 229.766 397.234C230 397.469 230 397.846 230 398.6V413.4C230 414.154 230 414.531 229.766 414.766C229.531 415 229.154 415 228.4 415H217C216.448 415 216 414.552 216 414V398C216 397.448 216.448 397 217 397Z" fill="#B8FEDC"/>
<path d="M182 406C182 403.239 184.239 401 187 401C189.761 401 192 403.239 192 406C192 408.761 189.761 411 187 411C184.239 411 182 408.761 182 406Z" fill="#B8FEDC"/>
</svg>
